<svg width="24" height="24" viewBox="0 0 24 24" fill="none" xmlns="http://www.w3.org/2000/svg">
<path fill-rule="evenodd" clip-rule="evenodd" d="M15.4952 2.36338C15.7272 2.13727 16.0553 1.9956 16.4429 2.0001C16.5306 2.001 16.6167 2.01211 16.7025 2.03011L20.2446 2.73775C20.773 2.84314 21.1886 3.25873 21.294 3.78714L21.9997 7.32013C22.0934 7.73613 22.0038 8.12582 21.7962 8.40605C21.5885 8.68628 21.2805 8.85944 20.9574 8.9239C20.6344 8.98836 20.2863 8.94774 19.987 8.76868C19.6877 8.58961 19.4548 8.26331 19.3817 7.8432L19.1619 6.75858L16.2616 9.66546C15.9673 9.97192 15.5896 10.1071 15.2422 10.0894C14.8948 10.0717 14.5823 9.9141 14.35 9.68176C14.1176 9.44942 13.9594 9.13695 13.9417 8.78955C13.924 8.44214 14.0663 8.07092 14.3728 7.77667L17.2764 4.86915L16.1814 4.65001C15.3662 4.48971 15.033 3.80838 15.0994 3.20799C15.1334 2.90003 15.2633 2.5895 15.4952 2.36338ZM7.3354 2.03011C7.42114 2.01211 7.50729 2.001 7.59497 2.0001C7.98253 1.9956 8.31066 2.13727 8.54262 2.36338C8.77459 2.5895 8.9045 2.90003 8.93851 3.20799C9.00482 3.80838 8.67164 4.48971 7.85651 4.65001L6.76146 4.86915L9.66507 7.77667C9.97154 8.07092 10.1139 8.44214 10.0962 8.78955C10.0785 9.13695 9.92024 9.44942 9.6879 9.68176C9.45555 9.9141 9.14308 10.0717 8.79568 10.0894C8.44828 10.1071 8.07053 9.97192 7.77629 9.66546L4.87593 6.75858L4.65614 7.8432C4.58302 8.26331 4.3502 8.58961 4.0509 8.76868C3.75159 8.94774 3.40345 8.98836 3.08042 8.9239C2.75738 8.85944 2.44934 8.68628 2.24168 8.40605C2.03403 8.12582 1.94448 7.73613 2.03819 7.32013L2.74388 3.78714C2.84928 3.25873 3.26486 2.84314 3.79328 2.73775L7.3354 2.03011ZM8.79568 13.9485C8.44828 13.9308 8.07053 14.066 7.77629 14.3724L4.87593 17.2793L4.65614 16.1947C4.58302 15.7746 4.3502 15.4483 4.0509 15.2692C3.75159 15.0901 3.40345 15.0495 3.08042 15.114C2.75738 15.1784 2.44934 15.3516 2.24168 15.6318C2.03403 15.9121 1.94448 16.3017 2.03819 16.7177L2.74388 20.2507C2.84928 20.7791 3.26486 21.1947 3.79328 21.3001L7.3354 22.0078C7.42114 22.0258 7.50729 22.0369 7.59497 22.0378C7.98253 22.0423 8.31066 21.9006 8.54262 21.6745C8.77459 21.4484 8.9045 21.1378 8.93851 20.8299C9.00482 20.2295 8.67164 19.5482 7.85651 19.3879L6.76146 19.1687L9.66507 16.2612C9.97154 15.967 10.1139 15.5957 10.0962 15.2483C10.0785 14.9009 9.92024 14.5885 9.6879 14.3561C9.45555 14.1238 9.14308 13.9662 8.79568 13.9485ZM13.9417 15.2483C13.9594 14.9009 14.1176 14.5885 14.35 14.3561C14.5823 14.1238 14.8948 13.9662 15.2422 13.9485C15.5896 13.9308 15.9673 14.066 16.2616 14.3724L19.1619 17.2793L19.3817 16.1947C19.4549 15.7746 19.6877 15.4483 19.987 15.2692C20.2863 15.0901 20.6344 15.0495 20.9575 15.114C21.2805 15.1784 21.5885 15.3516 21.7962 15.6318C22.0038 15.9121 22.0934 16.3017 21.9997 16.7177L21.294 20.2507C21.1886 20.7791 20.773 21.1947 20.2446 21.3001L16.7025 22.0078C16.6167 22.0258 16.5306 22.0369 16.4429 22.0378C16.0553 22.0423 15.7272 21.9006 15.4952 21.6745C15.2633 21.4484 15.1334 21.1378 15.0994 20.8299C15.033 20.2295 15.3662 19.5482 16.1814 19.3879L17.2764 19.1687L14.3728 16.2612C14.0663 15.967 13.924 15.5957 13.9417 15.2483Z" fill="#E6F4FF"/>
</svg>
