<svg width="24" height="24" viewBox="0 0 24 24" fill="none" xmlns="http://www.w3.org/2000/svg">
<path d="M9.9 4.14286V19.8571C9.9 20.4255 9.67875 20.9705 9.28492 21.3724C8.8911 21.7742 8.35695 22 7.8 22H7.1C6.54305 22 6.0089 21.7742 5.61508 21.3724C5.22125 20.9705 5 20.4255 5 19.8571V4.14286C5 3.57454 5.22125 3.02949 5.61508 2.62763C6.0089 2.22576 6.54305 2 7.1 2H7.8C8.35695 2 8.8911 2.22576 9.28492 2.62763C9.67875 3.02949 9.9 3.57454 9.9 4.14286ZM16.9 2H16.2C15.643 2 15.1089 2.22576 14.7151 2.62763C14.3212 3.02949 14.1 3.57454 14.1 4.14286V19.8571C14.1 20.4255 14.3212 20.9705 14.7151 21.3724C15.1089 21.7742 15.643 22 16.2 22H16.9C17.457 22 17.9911 21.7742 18.3849 21.3724C18.7788 20.9705 19 20.4255 19 19.8571V4.14286C19 3.57454 18.7788 3.02949 18.3849 2.62763C17.9911 2.22576 17.457 2 16.9 2Z" fill="#E6F4FF"/>
</svg>
