<svg width="24" height="24" viewBox="0 0 24 24" fill="none" xmlns="http://www.w3.org/2000/svg">
<path fill-rule="evenodd" clip-rule="evenodd" d="M7.04346 5.74604C7.99337 4.63781 9.38012 4 10.8397 4H11C12.6569 4 14 5.34315 14 7V17C14 18.6569 12.6569 20 11 20H10.8397C9.38012 20 7.99337 19.3622 7.04346 18.254C6.70415 17.8581 6.30972 17.5512 5.78377 17.4489L5.23652 17.3425C3.35696 16.977 2 15.3308 2 13.416V10.584C2 8.6692 3.35695 7.02297 5.23652 6.6575L5.78377 6.55109C6.30972 6.44883 6.70415 6.1419 7.04346 5.74604ZM19.2943 6.63414C19.7726 6.358 20.3842 6.52187 20.6604 7.00016C21.538 8.52036 22.0001 10.2448 22.0001 12.0002C22.0001 13.7555 21.538 15.48 20.6604 17.0002C20.3842 17.4785 19.7726 17.6423 19.2943 17.3662C18.816 17.0901 18.6522 16.4785 18.9283 16.0002C19.6305 14.784 20.0001 13.4045 20.0001 12.0002C20.0001 10.5959 19.6305 9.21632 18.9283 8.00016C18.6522 7.52187 18.816 6.91028 19.2943 6.63414ZM16.3989 8.30602C16.8772 8.02988 17.4888 8.19375 17.7649 8.67204C18.3492 9.68402 18.6567 10.832 18.6567 12.0005C18.6567 13.169 18.3492 14.3169 17.7649 15.3289C17.4888 15.8072 16.8772 15.9711 16.3989 15.6949C15.9206 15.4188 15.7567 14.8072 16.0328 14.3289C16.4416 13.621 16.6567 12.8179 16.6567 12.0005C16.6567 11.183 16.4416 10.38 16.0328 9.67204C15.7567 9.19375 15.9206 8.58216 16.3989 8.30602Z" fill="#E6F4FF"/>
</svg>
